<?xml version="1.0" encoding="iso-8859-1"?>
<!-- Generator: Adobe Illustrator 19.0.0, SVG Export Plug-In . SVG Version: 6.00 Build 0)  -->
<svg version="1.1" id="Layer_1" xmlns="http://www.w3.org/2000/svg" xmlns:xlink="http://www.w3.org/1999/xlink" x="0px" y="0px"
	 viewBox="0 0 512 512" style="enable-background:new 0 0 512 512;" xml:space="preserve">
<g>
	<g>
		<path d="M389.565,400.696h-66.783c-9.22,0-16.696,7.475-16.696,16.696s7.475,16.696,16.696,16.696h66.783
			c9.22,0,16.696-7.475,16.696-16.696S398.785,400.696,389.565,400.696z"/>
	</g>
</g>
<g>
	<g>
		<path d="M472.645,474.965c-3.899-92.646-65.593-169.236-148.063-196.743c15.753-11.455,28.545-26.742,36.996-44.483h27.987
			c27.618,0,50.087-22.469,50.087-50.087C439.653,82.386,357.267,0,256.001,0S72.349,82.386,72.349,183.652
			c0,27.618,22.469,50.087,50.087,50.087h27.987c8.45,17.741,21.244,33.027,36.996,44.483
			C105.79,305.448,43.292,381.461,39.357,474.965c-0.532,2.391-0.398,2.187-0.398,20.34c0,9.22,7.475,16.696,16.696,16.696H456.35
			c9.22,0,16.696-7.475,16.696-16.696C473.043,476.888,473.165,477.306,472.645,474.965z M406.261,183.652
			c0,9.206-7.49,16.696-16.696,16.696h-17.893c1.596-11.109,1.598-22.269,0-33.391h17.893
			C398.772,166.957,406.261,174.446,406.261,183.652z M140.328,200.348h-17.893c-9.206,0-16.696-7.49-16.696-16.696
			c0-9.206,7.49-16.696,16.696-16.696h17.893C138.732,178.064,138.73,189.225,140.328,200.348z M150.422,133.565
			c-30.531,0-30.89-0.209-36.339,0.709C134.556,75.603,190.436,33.391,256,33.391s121.444,42.212,141.916,100.883
			c-5.502-0.927-5.928-0.709-36.339-0.709c-18.79-39.45-59.05-66.783-105.578-66.783S169.212,94.116,150.422,133.565z
			 M172.522,183.652c0-46.03,37.448-83.478,83.478-83.478c46.03,0,83.478,37.448,83.478,83.478c0,5.717-0.58,11.3-1.68,16.696H256
			c-9.22,0-16.696,7.475-16.696,16.696c0,9.22,7.475,16.696,16.696,16.696h66.737C307.491,254.001,283.252,267.13,256,267.13
			C209.97,267.13,172.522,229.682,172.522,183.652z M239.304,478.609H72.636c1.754-57.981,31.097-109.548,75.044-142.081
			l91.625,91.625V478.609z M177.087,318.713c24.003-11.64,50.797-18.192,78.913-18.192c28.116,0,54.91,6.551,78.911,18.192
			L256,397.625L177.087,318.713z M272.695,478.609v-50.456l91.625-91.625c43.946,32.533,73.289,84.102,75.044,142.081H272.695z"/>
	</g>
</g>
<g>
</g>
<g>
</g>
<g>
</g>
<g>
</g>
<g>
</g>
<g>
</g>
<g>
</g>
<g>
</g>
<g>
</g>
<g>
</g>
<g>
</g>
<g>
</g>
<g>
</g>
<g>
</g>
<g>
</g>
</svg>
